<svg xmlns="http://www.w3.org/2000/svg" viewBox="0 0 750 417"><g fill="none" stroke="#828282" stroke-width="2"><path d="M125.12 214.95q-3.36 8.63-.58 17.48c5.14 16.33 20.74 26.2 37.93 23.25q.51-.08.87.3c16.23 17.68 47.63 11.58 54.74-11.91q.15-.5.67-.59c7.09-1.2 11.32-3.94 16.18-8.9 12.57-12.84 12.23-30.58 1.35-44.56q-.31-.4-.16-.88 3.12-10.42-.17-19.33-9.43-25.49-37.6-22.11-.48.06-.83-.28-15.72-15.36-35.37-8.1c-11.15 4.13-14.65 10.45-19.79 20.34q-.23.44-.73.53c-15.84 2.65-27.13 20.4-24.82 35.8 1.12 7.42 4.26 11.89 8.21 18.03q.29.44.1.93M325.91 198.3a29.67 29.67 0 0 0-29.67-29.67h-6a29.67 29.67 0 0 0-29.67 29.67v17.2a29.67 29.67 0 0 0 29.67 29.67h6a29.67 29.67 0 0 0 29.67-29.67v-17.2M541.8 169.92a.33.33 0 0 0-.32.21l-26.03 73.15a.33.33 0 0 0 .31.44l12.79-.09a.33.33 0 0 0 .31-.23l4.97-15.43a.33.33 0 0 1 .31-.23l29.42-.12a.33.33 0 0 1 .32.24l4.78 15.71a.33.33 0 0 0 .32.24l12.88-.19a.33.33 0 0 0 .31-.44l-25.95-72.71a.33.33 0 0 0-.31-.22l-14.11-.33M619.06 181.17a.59.59 0 0 1 .59-.59l15.01-.12a.59.59 0 0 0 .59-.59v-9.33a.59.59 0 0 0-.59-.59l-43.82.28a.59.59 0 0 0-.59.59v9.09a.59.59 0 0 0 .59.59h14.38a.59.59 0 0 1 .59.59l.16 51.57a.59.59 0 0 1-.59.59h-14.54a.59.59 0 0 0-.59.59l.01 9.32a.59.59 0 0 0 .59.59h43.81a.59.59 0 0 0 .59-.59v-9.39a.59.59 0 0 0-.6-.59l-14.78.24a.59.59 0 0 1-.6-.59l-.21-51.66M350.46 237.09c14.12 16.71 38.79 6.3 39.02-14.9.07-6.59.52-14.16-1.29-19.69-5.22-15.95-27.57-19.98-38.02-6.12q-.49.64-.63-.15-.48-2.78.04-5.55a.79.79 0 0 0-.78-.93h-11.3q-.5 0-.5.5v71.25a1 1 0 0 0 1 1h11.5q.5 0 .5-.5v-24.74q0-.72.46-.17M419.19 188.39c-12.01 1.07-20.37 10.68-20.44 22.63-.03 5.38-.44 11.9.6 16.62 4.6 20.93 35.76 23.57 46.38 6.26q.38-.6-.25-.94l-7.32-3.9q-.5-.26-.87.17c-7.19 8.43-24.75 10.38-25.96-4.22q-.16-1.85-.28-3.79-.04-.71.67-.71l35.06.01q.42 0 .45-.42.68-9.56.06-12.87c-2.81-15.13-13.99-20.11-28.1-18.84M469.5 197v-6.5q0-.75-.75-.75h-11.4q-.39 0-.4.5l-.27 53.18a.56.56 0 0 0 .56.57h12.46q.54 0 .54-.53.02-13.35.05-26.7c.01-8.41.27-16.56 10.06-17.23 7.19-.48 12.08 3.59 12.11 10.98q.06 16.47.04 32.97 0 .51.51.51h11.97q.5 0 .5-.5.06-16.37 0-32.7-.03-8.55-1.54-12.23c-5.73-13.93-27.11-13.89-33.96-1.45q-.48.87-.48-.12" vector-effect="non-scaling-stroke"/><path d="M188.19 150.96c-13.85-9.84-31.94-3.89-37.23 12.11q-1.27 3.83-1.24 10.5.06 12.47.02 25a2.05 2.04-75 0 0 1.02 1.77l9.17 5.24a.38.37-76.1 0 0 .56-.34q-.49-16.19-.11-32.31c.1-4.15.31-5.95 4.22-8.07q12.1-6.53 23.57-13.42.37-.22.02-.48" vector-effect="non-scaling-stroke"/><path d="M228.4 183.2c1.47-15.08-10.63-28.86-25.96-26.82q-4.83.64-14.32 5.8-10.31 5.6-20.44 11.52-.47.27-.49.82l-.34 11.18a.31.31 0 0 0 .46.27q12.34-6.87 24.49-14.18c5.65-3.39 7.44-4.99 13.08-1.79q11.64 6.6 23.12 13.41.36.21.4-.21M173.3 220.7q-15.53-8.78-30.49-17.51c-2.25-1.31-1.73-4.16-1.76-6.38q-.2-12.53-.41-25.91-.02-1.38-1.27-.79c-13.59 6.33-18.34 25.05-8.3 36.58q2.83 3.25 11.8 8.43 10.04 5.79 20.34 11.75a.94.93-44.5 0 0 .95 0l9.15-5.26q.8-.46-.01-.91" vector-effect="non-scaling-stroke"/><path d="M227.31 193.94q-12.51-8.17-29.76-17.6-.5-.28-.99.01l-8.77 5.19q-.63.37-.01.76 14.11 8.71 28.56 16.84c2.02 1.14 4.08 3.82 4.01 5.86q-.49 14.31-.32 28.72 0 .48.43.26c14.07-7.07 19.33-22.36 10.5-36.15q-1.66-2.6-3.65-3.89M193.27 193.06 181.13 186q-.49-.29-.97.01-6.1 3.78-12.3 7.39c-1.43.84-.92 13.54-.88 15.83q0 .53.46.79l12.22 7.1q.48.28.98.04 5.93-2.94 11.64-6.34c2.89-1.72 1.48-13.76 1.43-17.02a.89.87 14.8 0 0-.44-.74" vector-effect="non-scaling-stroke"/><path d="M210.98 204.81c-.03-1.96-7.67-5.75-9.52-6.88a.8.8 0 0 0-1.21.68q0 17.41-.01 34.86c0 1.53-1.12 3.26-2.47 4.01q-12.36 6.85-24.41 14.34-.56.35-.11.82c3.83 3.99 12.38 5.41 17.48 4.42 12.5-2.42 19.93-11.7 20.16-24.33q.26-13.95.09-27.92" vector-effect="non-scaling-stroke"/><path d="m159.71 235.34-26.68-15.17q-.31-.18-.35.17c-2.34 19.66 18.31 33.57 35.66 23.63q12.6-7.22 25.17-14.57.43-.26.42-.76l-.21-10.83q-.01-.66-.59-.33-14.24 8.27-28.43 16.47-2.1 1.21-3.73 1.58-.67.15-1.26-.19M312.274 197.677a17.81 17.81 0 0 0-17.841-17.78l-2.64.005a17.81 17.81 0 0 0-17.78 17.841l.033 18.54a17.81 17.81 0 0 0 17.841 17.78l2.64-.005a17.81 17.81 0 0 0 17.78-17.841l-.033-18.54M537.26 217.28a.34.34 0 0 0 .32.45l22.4.04a.34.34 0 0 0 .32-.45l-11.13-35.29a.34.34 0 0 0-.65 0l-11.26 35.25M376.32 210.905a12.08 12.08 0 0 0-12.122-12.038l-1.92.007a12.08 12.08 0 0 0-12.038 12.122l.04 11.3a12.08 12.08 0 0 0 12.122 12.037l1.92-.006a12.08 12.08 0 0 0 12.038-12.123l-.04-11.3M435.39 211.85c1.11-21.1-26.47-18.68-23.98-.11q.07.51.58.51h22.97q.4 0 .43-.4" vector-effect="non-scaling-stroke"/></g><path fill="#070707" d="M0 0h750v417H0V0Zm125.12 214.95q-3.36 8.63-.58 17.48c5.14 16.33 20.74 26.2 37.93 23.25q.51-.08.87.3c16.23 17.68 47.63 11.58 54.74-11.91q.15-.5.67-.59c7.09-1.2 11.32-3.94 16.18-8.9 12.57-12.84 12.23-30.58 1.35-44.56q-.31-.4-.16-.88 3.12-10.42-.17-19.33-9.43-25.49-37.6-22.11-.48.06-.83-.28-15.72-15.36-35.37-8.1c-11.15 4.13-14.65 10.45-19.79 20.34q-.23.44-.73.53c-15.84 2.65-27.13 20.4-24.82 35.8 1.12 7.42 4.26 11.89 8.21 18.03q.29.44.1.93Zm200.79-16.65a29.67 29.67 0 0 0-29.67-29.67h-6a29.67 29.67 0 0 0-29.67 29.67v17.2a29.67 29.67 0 0 0 29.67 29.67h6a29.67 29.67 0 0 0 29.67-29.67v-17.2Zm215.89-28.38a.33.33 0 0 0-.32.21l-26.03 73.15a.33.33 0 0 0 .31.44l12.79-.09a.33.33 0 0 0 .31-.23l4.97-15.43a.33.33 0 0 1 .31-.23l29.42-.12a.33.33 0 0 1 .32.24l4.78 15.71a.33.33 0 0 0 .32.24l12.88-.19a.33.33 0 0 0 .31-.44l-25.95-72.71a.33.33 0 0 0-.31-.22l-14.11-.33Zm77.26 11.25a.59.59 0 0 1 .59-.59l15.01-.12a.59.59 0 0 0 .59-.59v-9.33a.59.59 0 0 0-.59-.59l-43.82.28a.59.59 0 0 0-.59.59v9.09a.59.59 0 0 0 .59.59h14.38a.59.59 0 0 1 .59.59l.16 51.57a.59.59 0 0 1-.59.59h-14.54a.59.59 0 0 0-.59.59l.01 9.32a.59.59 0 0 0 .59.59h43.81a.59.59 0 0 0 .59-.59v-9.39a.59.59 0 0 0-.6-.59l-14.78.24a.59.59 0 0 1-.6-.59l-.21-51.66Zm-268.6 55.92c14.12 16.71 38.79 6.3 39.02-14.9.07-6.59.52-14.16-1.29-19.69-5.22-15.95-27.57-19.98-38.02-6.12q-.49.64-.63-.15-.48-2.78.04-5.55a.79.79 0 0 0-.78-.93h-11.3q-.5 0-.5.5v71.25a1 1 0 0 0 1 1h11.5q.5 0 .5-.5v-24.74q0-.72.46-.17Zm68.73-48.7c-12.01 1.07-20.37 10.68-20.44 22.63-.03 5.38-.44 11.9.6 16.62 4.6 20.93 35.76 23.57 46.38 6.26q.38-.6-.25-.94l-7.32-3.9q-.5-.26-.87.17c-7.19 8.43-24.75 10.38-25.96-4.22q-.16-1.85-.28-3.79-.04-.71.67-.71l35.06.01q.42 0 .45-.42.68-9.56.06-12.87c-2.81-15.13-13.99-20.11-28.1-18.84ZM469.5 197v-6.5q0-.75-.75-.75h-11.4q-.39 0-.4.5l-.27 53.18a.56.56 0 0 0 .56.57h12.46q.54 0 .54-.53.02-13.35.05-26.7c.01-8.41.27-16.56 10.06-17.23 7.19-.48 12.08 3.59 12.11 10.98q.06 16.47.04 32.97 0 .51.51.51h11.97q.5 0 .5-.5.06-16.37 0-32.7-.03-8.55-1.54-12.23c-5.73-13.93-27.11-13.89-33.96-1.45q-.48.87-.48-.12Z"/><path fill="#fdfdfd" d="M125.02 214.02c-3.95-6.14-7.09-10.61-8.21-18.03-2.31-15.4 8.98-33.15 24.82-35.8q.5-.09.73-.53c5.14-9.89 8.64-16.21 19.79-20.34q19.65-7.26 35.37 8.1.35.34.83.28 28.17-3.38 37.6 22.11 3.29 8.91.17 19.33-.15.48.16.88c10.88 13.98 11.22 31.72-1.35 44.56-4.86 4.96-9.09 7.7-16.18 8.9q-.52.09-.67.59c-7.11 23.49-38.51 29.59-54.74 11.91q-.36-.38-.87-.3c-17.19 2.95-32.79-6.92-37.93-23.25q-2.78-8.85.58-17.48.19-.49-.1-.93Zm63.17-63.06c-13.85-9.84-31.94-3.89-37.23 12.11q-1.27 3.83-1.24 10.5.06 12.47.02 25a2.05 2.04-75 0 0 1.02 1.77l9.17 5.24a.38.37-76.1 0 0 .56-.34q-.49-16.19-.11-32.31c.1-4.15.31-5.95 4.22-8.07q12.1-6.53 23.57-13.42.37-.22.02-.48Zm40.21 32.24c1.47-15.08-10.63-28.86-25.96-26.82q-4.83.64-14.32 5.8-10.31 5.6-20.44 11.52-.47.27-.49.82l-.34 11.18a.31.31 0 0 0 .46.27q12.34-6.87 24.49-14.18c5.65-3.39 7.44-4.99 13.08-1.79q11.64 6.6 23.12 13.41.36.21.4-.21Zm-55.1 37.5q-15.53-8.78-30.49-17.51c-2.25-1.31-1.73-4.16-1.76-6.38q-.2-12.53-.41-25.91-.02-1.38-1.27-.79c-13.59 6.33-18.34 25.05-8.3 36.58q2.83 3.25 11.8 8.43 10.04 5.79 20.34 11.75a.94.93-44.5 0 0 .95 0l9.15-5.26q.8-.46-.01-.91Zm54.01-26.76q-12.51-8.17-29.76-17.6-.5-.28-.99.01l-8.77 5.19q-.63.37-.01.76 14.11 8.71 28.56 16.84c2.02 1.14 4.08 3.82 4.01 5.86q-.49 14.31-.32 28.72 0 .48.43.26c14.07-7.07 19.33-22.36 10.5-36.15q-1.66-2.6-3.65-3.89Zm-34.04-.88L181.13 186q-.49-.29-.97.01-6.1 3.78-12.3 7.39c-1.43.84-.92 13.54-.88 15.83q0 .53.46.79l12.22 7.1q.48.28.98.04 5.93-2.94 11.64-6.34c2.89-1.72 1.48-13.76 1.43-17.02a.89.87 14.8 0 0-.44-.74Zm17.71 11.75c-.03-1.96-7.67-5.75-9.52-6.88a.8.8 0 0 0-1.21.68q0 17.41-.01 34.86c0 1.53-1.12 3.26-2.47 4.01q-12.36 6.85-24.41 14.34-.56.35-.11.82c3.83 3.99 12.38 5.41 17.48 4.42 12.5-2.42 19.93-11.7 20.16-24.33q.26-13.95.09-27.92Zm-51.27 30.53-26.68-15.17q-.31-.18-.35.17c-2.34 19.66 18.31 33.57 35.66 23.63q12.6-7.22 25.17-14.57.43-.26.42-.76l-.21-10.83q-.01-.66-.59-.33-14.24 8.27-28.43 16.47-2.1 1.21-3.73 1.58-.67.15-1.26-.19Z"/><path fill="#070707" d="M188.19 150.96q.35.26-.02.48-11.47 6.89-23.57 13.42c-3.91 2.12-4.12 3.92-4.22 8.07q-.38 16.12.11 32.31a.38.37-76.1 0 1-.56.34l-9.17-5.24a2.05 2.04-75 0 1-1.02-1.77q.04-12.53-.02-25-.03-6.67 1.24-10.5c5.29-16 23.38-21.95 37.23-12.11Z"/><path fill="#070707" d="M202.44 156.38c15.33-2.04 27.43 11.74 25.96 26.82q-.04.42-.4.21-11.48-6.81-23.12-13.41c-5.64-3.2-7.43-1.6-13.08 1.79q-12.15 7.31-24.49 14.18a.31.31 0 0 1-.46-.27l.34-11.18q.02-.55.49-.82 10.13-5.92 20.44-11.52 9.49-5.16 14.32-5.8Z"/><path fill="#fdfdfd" d="M325.91 215.5a29.67 29.67 0 0 1-29.67 29.67h-6a29.67 29.67 0 0 1-29.67-29.67v-17.2a29.67 29.67 0 0 1 29.67-29.67h6a29.67 29.67 0 0 1 29.67 29.67v17.2Zm-13.636-17.823a17.81 17.81 0 0 0-17.841-17.78l-2.64.005a17.81 17.81 0 0 0-17.78 17.841l.033 18.54a17.81 17.81 0 0 0 17.841 17.78l2.64-.005a17.81 17.81 0 0 0 17.78-17.841l-.033-18.54Z"/><path fill="#070707" d="M173.3 220.7q.81.45.01.91l-9.15 5.26a.94.93-44.5 0 1-.95 0q-10.3-5.96-20.34-11.75-8.97-5.18-11.8-8.43c-10.04-11.53-5.29-30.25 8.3-36.58q1.25-.59 1.27.79.21 13.38.41 25.91c.03 2.22-.49 5.07 1.76 6.38q14.96 8.73 30.49 17.51Z"/><path fill="#fdfdfd" d="m541.8 169.92 14.11.33a.33.33 0 0 1 .31.22l25.95 72.71a.33.33 0 0 1-.31.44l-12.88.19a.33.33 0 0 1-.32-.24l-4.78-15.71a.33.33 0 0 0-.32-.24l-29.42.12a.33.33 0 0 0-.31.23l-4.97 15.43a.33.33 0 0 1-.31.23l-12.79.09a.33.33 0 0 1-.31-.44l26.03-73.15a.33.33 0 0 1 .32-.21Zm-4.54 47.36a.34.34 0 0 0 .32.45l22.4.04a.34.34 0 0 0 .32-.45l-11.13-35.29a.34.34 0 0 0-.65 0l-11.26 35.25ZM619.06 181.17l.21 51.66a.59.59 0 0 0 .6.59l14.78-.24a.59.59 0 0 1 .6.59v9.39a.59.59 0 0 1-.59.59h-43.81a.59.59 0 0 1-.59-.59l-.01-9.32a.59.59 0 0 1 .59-.59h14.54a.59.59 0 0 0 .59-.59l-.16-51.57a.59.59 0 0 0-.59-.59h-14.38a.59.59 0 0 1-.59-.59v-9.09a.59.59 0 0 1 .59-.59l43.82-.28a.59.59 0 0 1 .59.59v9.33a.59.59 0 0 1-.59.59l-15.01.12a.59.59 0 0 0-.59.59Z"/><path fill="#070707" d="M227.31 193.94q1.99 1.29 3.65 3.89c8.83 13.79 3.57 29.08-10.5 36.15q-.43.22-.43-.26-.17-14.41.32-28.72c.07-2.04-1.99-4.72-4.01-5.86q-14.45-8.13-28.56-16.84-.62-.39.01-.76l8.77-5.19q.49-.29.99-.01 17.25 9.43 29.76 17.6Z"/><rect width="38.26" height="54.16" x="-19.13" y="-27.08" fill="#070707" rx="17.81" transform="rotate(-.1 118737.354 -167864.775)"/><path fill="#070707" d="m537.26 217.28 11.26-35.25a.34.34 0 0 1 .65 0l11.13 35.29a.34.34 0 0 1-.32.45l-22.4-.04a.34.34 0 0 1-.32-.45ZM193.27 193.06a.89.87 14.8 0 1 .44.74c.05 3.26 1.46 15.3-1.43 17.02q-5.71 3.4-11.64 6.34-.5.24-.98-.04l-12.22-7.1q-.46-.26-.46-.79c-.04-2.29-.55-14.99.88-15.83q6.2-3.61 12.3-7.39.48-.3.97-.01l12.14 7.06Z"/><path fill="#fdfdfd" d="M350 237.26V262q0 .5-.5.5H338a1 1 0 0 1-1-1v-71.25q0-.5.5-.5h11.3a.79.79 0 0 1 .78.93q-.52 2.77-.04 5.55.14.79.63.15c10.45-13.86 32.8-9.83 38.02 6.12 1.81 5.53 1.36 13.1 1.29 19.69-.23 21.2-24.9 31.61-39.02 14.9q-.46-.55-.46.17Zm26.32-26.355a12.08 12.08 0 0 0-12.122-12.038l-1.92.007a12.08 12.08 0 0 0-12.038 12.122l.04 11.3a12.08 12.08 0 0 0 12.122 12.037l1.92-.006a12.08 12.08 0 0 0 12.038-12.123l-.04-11.3ZM398.75 211.02c.07-11.95 8.43-21.56 20.44-22.63 14.11-1.27 25.29 3.71 28.1 18.84q.62 3.31-.06 12.87-.03.42-.45.42l-35.06-.01q-.71 0-.67.71.12 1.94.28 3.79c1.21 14.6 18.77 12.65 25.96 4.22q.37-.43.87-.17l7.32 3.9q.63.34.25.94c-10.62 17.31-41.78 14.67-46.38-6.26-1.04-4.72-.63-11.24-.6-16.62Zm36.64.83c1.11-21.1-26.47-18.68-23.98-.11q.07.51.58.51h22.97q.4 0 .43-.4ZM469.98 197.12c6.85-12.44 28.23-12.48 33.96 1.45q1.51 3.68 1.54 12.23.06 16.33 0 32.7 0 .5-.5.5h-11.97q-.51 0-.51-.51.02-16.5-.04-32.97c-.03-7.39-4.92-11.46-12.11-10.98-9.79.67-10.05 8.82-10.06 17.23q-.03 13.35-.05 26.7 0 .53-.54.53h-12.46a.56.56 0 0 1-.56-.57l.27-53.18q.01-.5.4-.5h11.4q.75 0 .75.75v6.5q0 .99.48.12Z"/><path fill="#070707" d="M411.41 211.74c-2.49-18.57 25.09-20.99 23.98.11q-.03.4-.43.4h-22.97q-.51 0-.58-.51ZM201.46 197.93c1.85 1.13 9.49 4.92 9.52 6.88q.17 13.97-.09 27.92c-.23 12.63-7.66 21.91-20.16 24.33-5.1.99-13.65-.43-17.48-4.42q-.45-.47.11-.82 12.05-7.49 24.41-14.34c1.35-.75 2.47-2.48 2.47-4.01q.01-17.45.01-34.86a.8.8 0 0 1 1.21-.68Z"/><rect width="26.08" height="35.46" x="-13.04" y="-17.73" fill="#070707" rx="12.08" transform="rotate(-.2 62232.916 -103969.378)"/><path fill="#070707" d="M160.97 235.53q1.63-.37 3.73-1.58 14.19-8.2 28.43-16.47.58-.33.59.33l.21 10.83q.01.5-.42.76-12.57 7.35-25.17 14.57c-17.35 9.94-38-3.97-35.66-23.63q.04-.35.35-.17l26.68 15.17q.59.34 1.26.19Z"/></svg>